<svg aria-hidden="true" style="position: absolute; width: 0; height: 0; overflow: hidden;" version="1.1" xmlns="http://www.w3.org/2000/svg" xmlns:xlink="http://www.w3.org/1999/xlink">
 <defs>
 <symbol id="icon-Call-end" viewBox="0 0 32 32">
<path d="M27.654 22.957l-0.173-0.216c-1.372-1.735-2.519-2.637-3.503-2.756-0.851-0.116-1.673 0.472-2.548 1.077l-0.935 0.584c-0.112 0.056-0.223 0.101-0.327 0.132-0.547 0.155-1.927 0.245-2.708-0.469-0.909-0.832-2.32-2.355-3.417-3.685-1.048-1.377-2.2-3.095-2.801-4.176-0.508-0.916-0.083-2.197 0.201-2.672 0.056-0.093 0.129-0.185 0.211-0.276l0.824-0.761c0.012-0.012 0.017-0.027 0.028-0.037 0.008-0.008 0.021-0.005 0.031-0.012 0.744-0.628 1.513-1.275 1.619-2.105 0.124-0.976-0.483-2.296-1.857-4.029l-0.168-0.216c-0.851-1.091-2.137-2.74-3.985-2.468-0.727 0.108-1.376 0.356-2.045 0.776-0.007 0.004-0.011 0.012-0.016 0.016s-0.012 0.004-0.017 0.008l-0.932 0.691c-0.009 0.005-0.015 0.017-0.024 0.025-0.007 0.007-0.017 0.008-0.025 0.015-0.108 0.091-0.216 0.184-0.323 0.28-0.945 0.843-2.992 3.289-1.596 7.815 0.901 2.923 2.76 6.333 5.388 9.883l-0.025 0.021 1.449 1.805 0.012-0.009c2.849 3.371 5.749 5.976 8.407 7.553 1.773 1.053 3.323 1.401 4.597 1.401 1.677 0 2.879-0.603 3.481-0.995l0.379-0.253c0.043-0.029 0.073-0.071 0.104-0.108l0.825-0.621c0.009-0.008 0.015-0.019 0.024-0.027 0.004-0.004 0.011-0.003 0.016-0.007 0.587-0.536 0.993-1.097 1.276-1.763 0.732-1.705-0.579-3.339-1.445-4.42zM28.12 26.959c-0.22 0.517-0.541 0.957-1.005 1.384l-1.228 0.924c-1.112 0.723-3.489 1.616-6.943-0.435-2.657-1.577-5.583-4.244-8.461-7.712l-0.779-0.984c-2.711-3.595-4.617-7.037-5.517-9.955-1.169-3.793 0.304-5.828 1.291-6.707 0.1-0.091 0.2-0.175 0.299-0.259l0.004-0.004 0.895-0.663c0.544-0.344 1.048-0.536 1.628-0.624 1.239-0.187 2.247 1.12 2.987 2.069l0.173 0.22c1.536 1.937 1.684 2.859 1.636 3.235-0.053 0.417-0.688 0.952-1.248 1.423l-0.079 0.067c-0.003 0.003-0.004 0.007-0.007 0.009-0.004 0.003-0.008 0.004-0.012 0.007l-0.852 0.788c-0.005 0.005-0.008 0.012-0.013 0.019s-0.016 0.009-0.021 0.016c-0.132 0.148-0.245 0.296-0.337 0.449-0.479 0.801-0.931 2.457-0.217 3.739 0.623 1.12 1.808 2.889 2.897 4.319 1.139 1.381 2.591 2.949 3.532 3.809 0.705 0.644 1.687 0.86 2.536 0.86 0.455 0 0.872-0.063 1.188-0.152 0.167-0.048 0.339-0.117 0.516-0.204 0.011-0.005 0.016-0.015 0.027-0.021 0.005-0.003 0.013-0.001 0.019-0.005l0.989-0.619c0.032-0.021 0.053-0.049 0.080-0.076l0.012 0.013c0.609-0.423 1.304-0.919 1.739-0.847 0.385 0.047 1.26 0.417 2.799 2.36l0.177 0.223c0.749 0.935 1.776 2.215 1.297 3.333z"></path>
</symbol>
<symbol id="icon-Facebook-end" viewBox="0 0 32 32">
<path d="M23.987 2.128c-1.345-0.143-2.697-0.212-4.049-0.208-4.484 0-7.271 2.856-7.271 7.453v3.121h-3.767c-0.177 0-0.346 0.070-0.471 0.195s-0.195 0.295-0.195 0.471v5.133c0 0.177 0.070 0.346 0.195 0.471s0.295 0.195 0.471 0.195h3.767v10.293c0 0.177 0.070 0.346 0.195 0.471s0.295 0.195 0.471 0.195h5.304c0.177 0 0.346-0.070 0.471-0.195s0.195-0.295 0.195-0.471v-10.293h3.755c0.162 0 0.318-0.059 0.44-0.166s0.2-0.254 0.221-0.415l0.663-5.133c0.012-0.094 0.004-0.19-0.023-0.281s-0.074-0.175-0.137-0.246c-0.063-0.071-0.14-0.128-0.226-0.168s-0.18-0.059-0.275-0.059h-4.417v-2.612c0-1.293 0.26-1.833 1.877-1.833h2.719c0.177 0 0.346-0.070 0.471-0.195s0.195-0.295 0.195-0.471v-4.593c0-0.162-0.059-0.318-0.166-0.44s-0.254-0.2-0.415-0.221zM23.233 6.715l-2.053 0.001c-2.876 0-3.209 1.808-3.209 3.167v3.28c0 0.177 0.070 0.346 0.195 0.471s0.294 0.195 0.471 0.196h4.328l-0.492 3.8h-3.835c-0.177 0-0.346 0.070-0.471 0.195s-0.195 0.295-0.195 0.471v10.291h-3.971v-10.291c0-0.177-0.070-0.346-0.195-0.471s-0.295-0.195-0.471-0.195h-3.765v-3.8h3.765c0.177 0 0.346-0.070 0.471-0.195s0.195-0.295 0.195-0.471v-3.789c0-3.832 2.22-6.12 5.937-6.12 1.345 0 2.56 0.073 3.296 0.137v3.324z"></path>
</symbol>
<symbol id="icon-Instagram-end" viewBox="0 0 32 32">
<path d="M16 10.25c-1.137 0-2.249 0.337-3.194 0.969s-1.683 1.53-2.118 2.581c-0.435 1.051-0.549 2.207-0.327 3.322s0.77 2.14 1.574 2.944c0.804 0.804 1.829 1.352 2.944 1.574s2.272 0.108 3.322-0.327 1.949-1.172 2.581-2.118c0.632-0.946 0.969-2.057 0.969-3.195 0-1.525-0.606-2.988-1.684-4.066s-2.541-1.684-4.066-1.684zM16 20.25c-0.841 0-1.662-0.249-2.361-0.716s-1.244-1.131-1.565-1.907c-0.322-0.777-0.406-1.631-0.242-2.456s0.569-1.582 1.163-2.176 1.352-0.999 2.176-1.163c0.824-0.164 1.679-0.080 2.456 0.242s1.44 0.866 1.907 1.565c0.467 0.699 0.716 1.521 0.716 2.361-0.003 1.126-0.452 2.205-1.248 3.002s-1.875 1.245-3.002 1.248zM21.5 3.75h-11c-1.79 0-3.507 0.711-4.773 1.977s-1.977 2.983-1.977 4.773v11c0 1.79 0.711 3.507 1.977 4.773s2.983 1.977 4.773 1.977h11c1.79 0 3.507-0.711 4.773-1.977s1.977-2.983 1.977-4.773v-11c0-1.79-0.711-3.507-1.977-4.773s-2.983-1.977-4.773-1.977zM26.75 21.5c0 1.392-0.553 2.728-1.538 3.712s-2.32 1.538-3.712 1.538h-11c-1.392 0-2.728-0.553-3.712-1.538s-1.538-2.32-1.538-3.712v-11c0-1.392 0.553-2.728 1.538-3.712s2.32-1.538 3.712-1.538h11c1.392 0 2.728 0.553 3.712 1.538s1.538 2.32 1.538 3.712v11zM23.75 9.5c0 0.247-0.073 0.489-0.211 0.694s-0.333 0.366-0.561 0.46c-0.228 0.095-0.48 0.119-0.722 0.071s-0.465-0.167-0.64-0.342c-0.175-0.175-0.294-0.398-0.342-0.64s-0.023-0.494 0.071-0.722 0.255-0.424 0.46-0.561c0.206-0.137 0.447-0.211 0.694-0.211 0.332 0 0.65 0.132 0.884 0.366s0.366 0.552 0.366 0.884z"></path>
</symbol>
<symbol id="icon-logo-end" viewBox="0 0 67 32">
<path d="M1.415 0.357h5.315c1.253 0 2.216 0.094 2.89 0.283 0.687 0.175 1.172 0.465 1.455 0.869 0.283 0.391 0.424 0.943 0.424 1.657v1.617c0 0.364-0.148 0.707-0.445 1.031-0.283 0.323-0.62 0.546-1.011 0.667v0.101c0.512 0.054 0.977 0.276 1.395 0.667 0.431 0.377 0.647 0.802 0.647 1.273v2.021c0 1.064-0.424 1.819-1.273 2.264s-2.163 0.667-3.941 0.667h-5.457v-13.117zM6.73 5.693c0.499 0 0.869-0.040 1.112-0.121s0.404-0.209 0.485-0.384c0.094-0.189 0.141-0.458 0.141-0.808v-0.647c0-0.31-0.040-0.539-0.121-0.687-0.081-0.162-0.249-0.276-0.505-0.344-0.243-0.067-0.633-0.101-1.172-0.101h-2.102v3.092h2.163zM6.811 11.23c0.768 0 1.314-0.088 1.637-0.263s0.485-0.458 0.485-0.849v-1.051c0-0.485-0.128-0.829-0.384-1.031-0.243-0.202-0.68-0.303-1.314-0.303h-2.668v3.496h2.243zM19.034 13.676c-3.463 0-5.194-1.058-5.194-3.173v-3.517c0-1.226 0.391-2.115 1.172-2.668 0.795-0.552 2.014-0.829 3.658-0.829 1.549 0 2.681 0.269 3.395 0.808 0.728 0.525 1.091 1.421 1.091 2.688v2.385h-6.346v0.889c0 0.566 0.202 0.97 0.606 1.213s1.132 0.364 2.183 0.364c0.97 0 2.061-0.141 3.274-0.424v1.88c-1.199 0.256-2.479 0.384-3.84 0.384zM20.347 7.693v-1.415c0-0.323-0.135-0.566-0.404-0.728-0.256-0.162-0.694-0.243-1.314-0.243-0.714 0-1.192 0.081-1.435 0.243-0.256 0.175-0.384 0.418-0.384 0.728v1.415h3.537zM28.181 13.676c-0.916 0-1.603-0.081-2.061-0.243-0.445-0.175-0.761-0.478-0.95-0.909-0.175-0.445-0.263-1.105-0.263-1.981 0-0.781 0.094-1.395 0.283-1.839 0.202-0.445 0.519-0.761 0.95-0.95 0.445-0.202 1.051-0.303 1.819-0.303h3.315v-0.667c0-0.418-0.061-0.728-0.182-0.93-0.108-0.202-0.317-0.344-0.627-0.424-0.296-0.081-0.748-0.121-1.354-0.121-0.835 0-1.981 0.081-3.436 0.243v-1.859c1.064-0.135 2.311-0.202 3.739-0.202 1.253 0 2.216 0.094 2.89 0.283 0.687 0.189 1.179 0.512 1.475 0.97s0.445 1.125 0.445 2.001v6.73h-2.89v-0.889c-0.229 0.391-0.539 0.667-0.93 0.829-0.391 0.175-1.132 0.263-2.223 0.263zM29.333 11.837c0.593 0 1.017-0.020 1.273-0.061 0.189-0.027 0.317-0.067 0.384-0.121 0.081-0.054 0.148-0.141 0.202-0.263 0.054-0.094 0.081-0.236 0.081-0.424v-1.9h-2.021c-0.458 0-0.781 0.034-0.97 0.101-0.189 0.054-0.317 0.175-0.384 0.364-0.067 0.175-0.101 0.492-0.101 0.95 0 0.445 0.034 0.755 0.101 0.93s0.195 0.29 0.384 0.344c0.202 0.054 0.552 0.081 1.051 0.081zM40.215 13.676c-1.253 0-2.136-0.222-2.648-0.667-0.499-0.458-0.748-1.172-0.748-2.142v-7.175h2.951v6.771c0 0.377 0.034 0.66 0.101 0.849 0.081 0.189 0.229 0.323 0.445 0.404 0.229 0.081 0.573 0.121 1.031 0.121 0.579 0 1.004-0.034 1.273-0.101 0.269-0.081 0.451-0.216 0.546-0.404s0.141-0.478 0.141-0.869v-6.771h2.951v9.782h-2.91v-1.192c-0.216 0.93-1.26 1.395-3.133 1.395zM53.73 13.676c-0.499 0-0.916-0.020-1.253-0.061s-0.674-0.121-1.011-0.243c-0.377-0.121-0.687-0.29-0.93-0.505-0.229-0.216-0.418-0.512-0.566-0.889-0.162-0.391-0.243-0.842-0.243-1.354v-5.113h-1.981v-1.819h1.981v-2.829h2.951v2.829h2.688v1.819h-2.688v4.608c0 0.472 0.040 0.829 0.121 1.071 0.081 0.229 0.236 0.397 0.465 0.505 0.229 0.094 0.579 0.141 1.051 0.141 0.189 0 0.539-0.034 1.051-0.101v1.839c-0.633 0.067-1.179 0.101-1.637 0.101zM59.839 13.393l-3.901-9.701h3.213l2.203 6.912 2.001-6.912h3.052l-5.356 13.986h-2.991l1.779-4.285zM0.808 29.238l6.831-8.953h-6.629v-2.243h10.509v1.9l-6.831 8.953h6.952v2.264h-10.833v-1.92zM18.357 31.36c-0.606 0-1.105-0.020-1.496-0.061s-0.808-0.121-1.253-0.243c-0.485-0.135-0.876-0.323-1.172-0.566-0.296-0.256-0.546-0.613-0.748-1.071-0.202-0.445-0.303-0.984-0.303-1.617v-2.89c0-0.647 0.101-1.213 0.303-1.698s0.465-0.862 0.788-1.132c0.283-0.229 0.653-0.418 1.112-0.566 0.472-0.162 0.93-0.263 1.374-0.303 0.512-0.027 0.977-0.040 1.395-0.040 0.62 0 1.112 0.020 1.475 0.061 0.377 0.027 0.788 0.108 1.233 0.243 0.485 0.148 0.876 0.35 1.172 0.606 0.31 0.256 0.573 0.62 0.788 1.091 0.202 0.485 0.303 1.064 0.303 1.738v2.89c0 0.606-0.101 1.139-0.303 1.597-0.189 0.458-0.438 0.815-0.748 1.071-0.269 0.229-0.64 0.418-1.112 0.566-0.458 0.135-0.909 0.222-1.354 0.263-0.404 0.040-0.889 0.061-1.455 0.061zM18.357 29.521c0.552 0 0.97-0.040 1.253-0.121 0.283-0.094 0.478-0.236 0.586-0.424 0.121-0.189 0.182-0.465 0.182-0.829v-3.699c0-0.539-0.141-0.916-0.424-1.132s-0.815-0.323-1.597-0.323c-0.781 0-1.314 0.108-1.597 0.323s-0.424 0.593-0.424 1.132v3.699c0 0.364 0.054 0.64 0.162 0.829 0.121 0.189 0.323 0.33 0.606 0.424 0.283 0.081 0.701 0.121 1.253 0.121zM25.629 21.376h2.91v1.192c0.229-0.93 1.273-1.395 3.133-1.395 1.253 0 2.129 0.229 2.627 0.687 0.512 0.445 0.768 1.152 0.768 2.122v7.175h-2.951v-6.791c0-0.377-0.040-0.66-0.121-0.849-0.067-0.189-0.216-0.323-0.445-0.404-0.216-0.081-0.552-0.121-1.011-0.121-0.579 0-1.004 0.040-1.273 0.121-0.269 0.067-0.451 0.195-0.546 0.384s-0.141 0.478-0.141 0.869v6.791h-2.951v-9.782zM42.56 31.36c-3.463 0-5.194-1.058-5.194-3.173v-3.517c0-1.226 0.391-2.115 1.172-2.668 0.795-0.552 2.014-0.829 3.658-0.829 1.549 0 2.681 0.269 3.395 0.808 0.728 0.525 1.091 1.421 1.091 2.688v2.385h-6.346v0.889c0 0.566 0.202 0.97 0.606 1.213s1.132 0.364 2.183 0.364c0.97 0 2.061-0.141 3.274-0.424v1.88c-1.199 0.256-2.479 0.384-3.84 0.384zM43.874 25.378v-1.415c0-0.323-0.135-0.566-0.404-0.728-0.256-0.162-0.694-0.243-1.314-0.243-0.714 0-1.192 0.081-1.435 0.243-0.256 0.175-0.384 0.418-0.384 0.728v1.415h3.537z"></path>
</symbol>
<symbol id="icon-logo-start" viewBox="0 0 63 32">
<path d="M1.332 0.624h5.004c1.18 0 2.087 0.089 2.721 0.266 0.647 0.165 1.104 0.438 1.37 0.818 0.266 0.368 0.4 0.888 0.4 1.56v1.522c0 0.343-0.139 0.666-0.419 0.97-0.266 0.304-0.584 0.514-0.951 0.628v0.095c0.482 0.051 0.92 0.26 1.313 0.628 0.406 0.355 0.609 0.755 0.609 1.199v1.903c0 1.002-0.4 1.712-1.199 2.131s-2.036 0.628-3.71 0.628h-5.137v-12.349zM6.336 5.648c0.469 0 0.818-0.038 1.046-0.114s0.381-0.197 0.457-0.362c0.089-0.178 0.133-0.431 0.133-0.761v-0.609c0-0.292-0.038-0.507-0.114-0.647-0.076-0.152-0.235-0.26-0.476-0.323-0.228-0.063-0.596-0.095-1.104-0.095h-1.979v2.911h2.036zM6.412 10.861c0.723 0 1.237-0.082 1.541-0.247s0.457-0.431 0.457-0.799v-0.989c0-0.457-0.12-0.78-0.361-0.97-0.228-0.19-0.641-0.285-1.237-0.285h-2.512v3.292h2.112zM17.919 13.163c-3.26 0-4.89-0.996-4.89-2.987v-3.311c0-1.154 0.368-1.992 1.104-2.512 0.748-0.52 1.896-0.78 3.444-0.78 1.459 0 2.524 0.254 3.197 0.761 0.685 0.495 1.027 1.338 1.027 2.531v2.245h-5.974v0.837c0 0.533 0.19 0.913 0.571 1.142s1.066 0.342 2.055 0.342c0.913 0 1.941-0.133 3.082-0.4v1.77c-1.129 0.241-2.334 0.361-3.615 0.361zM19.156 7.531v-1.332c0-0.304-0.127-0.533-0.381-0.685-0.241-0.152-0.653-0.228-1.237-0.228-0.672 0-1.123 0.076-1.351 0.228-0.241 0.165-0.361 0.393-0.361 0.685v1.332h3.33zM26.53 13.163c-0.863 0-1.509-0.076-1.941-0.228-0.419-0.165-0.717-0.45-0.894-0.856-0.165-0.419-0.247-1.040-0.247-1.865 0-0.736 0.089-1.313 0.266-1.731 0.19-0.419 0.488-0.717 0.894-0.894 0.419-0.19 0.989-0.285 1.712-0.285h3.12v-0.628c0-0.393-0.057-0.685-0.171-0.875-0.101-0.19-0.298-0.323-0.59-0.4-0.279-0.076-0.704-0.114-1.275-0.114-0.786 0-1.865 0.076-3.235 0.228v-1.75c1.002-0.127 2.175-0.19 3.52-0.19 1.18 0 2.087 0.089 2.721 0.266 0.647 0.178 1.11 0.482 1.389 0.913s0.419 1.059 0.419 1.884v6.336h-2.721v-0.837c-0.216 0.368-0.507 0.628-0.875 0.78-0.368 0.165-1.066 0.247-2.093 0.247zM27.615 11.432c0.558 0 0.958-0.019 1.199-0.057 0.178-0.025 0.298-0.063 0.361-0.114 0.076-0.051 0.14-0.133 0.19-0.247 0.051-0.089 0.076-0.222 0.076-0.4v-1.789h-1.903c-0.431 0-0.736 0.032-0.913 0.095-0.178 0.051-0.298 0.165-0.361 0.342-0.063 0.165-0.095 0.463-0.095 0.894 0 0.419 0.032 0.71 0.095 0.875s0.184 0.273 0.361 0.323c0.19 0.051 0.52 0.076 0.989 0.076zM37.86 13.163c-1.18 0-2.011-0.209-2.493-0.628-0.469-0.431-0.704-1.104-0.704-2.017v-6.755h2.778v6.374c0 0.355 0.032 0.622 0.095 0.799 0.076 0.178 0.216 0.304 0.419 0.381 0.216 0.076 0.539 0.114 0.97 0.114 0.545 0 0.945-0.032 1.199-0.095 0.254-0.076 0.425-0.203 0.514-0.381s0.133-0.45 0.133-0.818v-6.374h2.778v9.209h-2.74v-1.123c-0.203 0.875-1.186 1.313-2.949 1.313zM50.584 13.163c-0.469 0-0.863-0.019-1.18-0.057s-0.634-0.114-0.951-0.228c-0.355-0.114-0.647-0.273-0.875-0.476-0.216-0.203-0.393-0.482-0.533-0.837-0.152-0.368-0.228-0.793-0.228-1.275v-4.814h-1.865v-1.712h1.865v-2.664h2.778v2.664h2.531v1.712h-2.531v4.338c0 0.444 0.038 0.78 0.114 1.008 0.076 0.216 0.222 0.374 0.438 0.476 0.216 0.089 0.545 0.133 0.989 0.133 0.178 0 0.507-0.032 0.989-0.095v1.731c-0.596 0.063-1.11 0.095-1.541 0.095zM56.335 12.897l-3.672-9.133h3.025l2.074 6.507 1.884-6.507h2.873l-5.042 13.167h-2.816l1.674-4.034zM0.761 29.328l6.431-8.429h-6.241v-2.112h9.894v1.789l-6.431 8.429h6.545v2.131h-10.198v-1.808zM17.282 31.325c-0.571 0-1.040-0.019-1.408-0.057s-0.761-0.114-1.18-0.228c-0.457-0.127-0.824-0.304-1.104-0.533-0.279-0.241-0.514-0.577-0.704-1.008-0.19-0.419-0.285-0.926-0.285-1.522v-2.721c0-0.609 0.095-1.142 0.285-1.598s0.438-0.812 0.742-1.066c0.266-0.216 0.615-0.393 1.046-0.533 0.444-0.152 0.875-0.247 1.294-0.285 0.482-0.025 0.92-0.038 1.313-0.038 0.584 0 1.046 0.019 1.389 0.057 0.355 0.025 0.742 0.101 1.161 0.228 0.457 0.14 0.824 0.33 1.104 0.571 0.292 0.241 0.539 0.584 0.742 1.027 0.19 0.457 0.285 1.002 0.285 1.636v2.721c0 0.571-0.095 1.072-0.285 1.503-0.178 0.431-0.412 0.767-0.704 1.008-0.254 0.216-0.603 0.393-1.046 0.533-0.431 0.127-0.856 0.209-1.275 0.247-0.381 0.038-0.837 0.057-1.37 0.057zM17.282 29.594c0.52 0 0.913-0.038 1.18-0.114 0.266-0.089 0.45-0.222 0.552-0.4 0.114-0.178 0.171-0.438 0.171-0.78v-3.482c0-0.507-0.133-0.863-0.4-1.066s-0.767-0.304-1.503-0.304c-0.736 0-1.237 0.101-1.503 0.304s-0.4 0.558-0.4 1.066v3.482c0 0.343 0.051 0.603 0.152 0.78 0.114 0.178 0.304 0.311 0.571 0.4 0.266 0.076 0.66 0.114 1.18 0.114zM24.128 21.926h2.74v1.123c0.216-0.875 1.199-1.313 2.949-1.313 1.18 0 2.004 0.216 2.474 0.647 0.482 0.419 0.723 1.085 0.723 1.998v6.755h-2.778v-6.393c0-0.355-0.038-0.622-0.114-0.799-0.063-0.178-0.203-0.304-0.419-0.381-0.203-0.076-0.52-0.114-0.951-0.114-0.545 0-0.945 0.038-1.199 0.114-0.254 0.063-0.425 0.184-0.514 0.361s-0.133 0.45-0.133 0.818v6.393h-2.778v-9.209zM40.068 31.325c-3.26 0-4.89-0.996-4.89-2.987v-3.311c0-1.154 0.368-1.992 1.104-2.512 0.748-0.52 1.896-0.78 3.444-0.78 1.459 0 2.524 0.254 3.197 0.761 0.685 0.495 1.027 1.338 1.027 2.531v2.245h-5.974v0.837c0 0.533 0.19 0.913 0.571 1.142s1.066 0.343 2.055 0.343c0.913 0 1.941-0.133 3.082-0.4v1.77c-1.129 0.241-2.334 0.361-3.615 0.361zM41.304 25.693v-1.332c0-0.304-0.127-0.533-0.381-0.685-0.241-0.152-0.653-0.228-1.237-0.228-0.672 0-1.123 0.076-1.351 0.228-0.241 0.165-0.361 0.393-0.361 0.685v1.332h3.33z"></path>
</symbol>
</defs>
</svg>
